<svg width="49" height="49" viewBox="0 0 49 49" fill="none" xmlns="http://www.w3.org/2000/svg">
<path d="M15.5999 3.6002C16.1246 3.6002 16.5499 3.17487 16.5499 2.6502C16.5499 2.12552 16.1246 1.7002 15.5999 1.7002C15.0752 1.7002 14.6499 2.12552 14.6499 2.6502C14.6499 3.17487 15.0752 3.6002 15.5999 3.6002Z" fill="#FFBA0A"/>
<path d="M11.5301 5.73008C12.0547 5.73008 12.4801 5.30475 12.4801 4.78008C12.4801 4.25541 12.0547 3.83008 11.5301 3.83008C11.0054 3.83008 10.5801 4.25541 10.5801 4.78008C10.5801 5.30475 11.0054 5.73008 11.5301 5.73008Z" fill="#FFBA0A"/>
<path d="M7.95 8.62021C8.47467 8.62021 8.9 8.19489 8.9 7.67022C8.9 7.14554 8.47467 6.72021 7.95 6.72021C7.42533 6.72021 7 7.14554 7 7.67022C7 8.19489 7.42533 8.62021 7.95 8.62021Z" fill="#FFBA0A"/>
<path d="M5.01006 12.1402C5.53473 12.1402 5.96006 11.7149 5.96006 11.1902C5.96006 10.6656 5.53473 10.2402 5.01006 10.2402C4.48539 10.2402 4.06006 10.6656 4.06006 11.1902C4.06006 11.7149 4.48539 12.1402 5.01006 12.1402Z" fill="#FFBA0A"/>
<path d="M2.81011 16.17C3.33478 16.17 3.76011 15.7447 3.76011 15.22C3.76011 14.6953 3.33478 14.27 2.81011 14.27C2.28544 14.27 1.86011 14.6953 1.86011 15.22C1.86011 15.7447 2.28544 16.17 2.81011 16.17Z" fill="#FFBA0A"/>
<path d="M1.43999 20.5602C1.96466 20.5602 2.38999 20.1348 2.38999 19.6102C2.38999 19.0855 1.96466 18.6602 1.43999 18.6602C0.91532 18.6602 0.48999 19.0855 0.48999 19.6102C0.48999 20.1348 0.91532 20.5602 1.43999 20.5602Z" fill="#FFBA0A"/>
<path d="M0.95 25.13C1.47467 25.13 1.9 24.7047 1.9 24.18C1.9 23.6553 1.47467 23.23 0.95 23.23C0.425329 23.23 0 23.6553 0 24.18C0 24.7047 0.425329 25.13 0.95 25.13Z" fill="#FFBA0A"/>
<path d="M1.35991 29.6998C1.88458 29.6998 2.30991 29.2745 2.30991 28.7498C2.30991 28.2251 1.88458 27.7998 1.35991 27.7998C0.835242 27.7998 0.409912 28.2251 0.409912 28.7498C0.409912 29.2745 0.835242 29.6998 1.35991 29.6998Z" fill="#FFBA0A"/>
<path d="M2.64995 34.11C3.17462 34.11 3.59995 33.6846 3.59995 33.16C3.59995 32.6353 3.17462 32.21 2.64995 32.21C2.12528 32.21 1.69995 32.6353 1.69995 33.16C1.69995 33.6846 2.12528 34.11 2.64995 34.11Z" fill="#FFBA0A"/>
<path d="M4.78008 38.1798C5.30475 38.1798 5.73008 37.7545 5.73008 37.2298C5.73008 36.7051 5.30475 36.2798 4.78008 36.2798C4.25541 36.2798 3.83008 36.7051 3.83008 37.2298C3.83008 37.7545 4.25541 38.1798 4.78008 38.1798Z" fill="#FFBA0A"/>
<path d="M7.66997 41.7501C8.19464 41.7501 8.61997 41.3248 8.61997 40.8001C8.61997 40.2754 8.19464 39.8501 7.66997 39.8501C7.1453 39.8501 6.71997 40.2754 6.71997 40.8001C6.71997 41.3248 7.1453 41.7501 7.66997 41.7501Z" fill="#FFBA0A"/>
<path d="M11.19 44.6998C11.7147 44.6998 12.14 44.2745 12.14 43.7498C12.14 43.2251 11.7147 42.7998 11.19 42.7998C10.6653 42.7998 10.24 43.2251 10.24 43.7498C10.24 44.2745 10.6653 44.6998 11.19 44.6998Z" fill="#FFBA0A"/>
<path d="M15.22 46.9C15.7447 46.9 16.17 46.4747 16.17 45.95C16.17 45.4253 15.7447 45 15.22 45C14.6953 45 14.27 45.4253 14.27 45.95C14.27 46.4747 14.6953 46.9 15.22 46.9Z" fill="#FFBA0A"/>
<path d="M19.6099 48.2701C20.1346 48.2701 20.5599 47.8448 20.5599 47.3201C20.5599 46.7954 20.1346 46.3701 19.6099 46.3701C19.0852 46.3701 18.6599 46.7954 18.6599 47.3201C18.6599 47.8448 19.0852 48.2701 19.6099 48.2701Z" fill="#FFBA0A"/>
<path d="M24.18 48.7599C24.7047 48.7599 25.13 48.3345 25.13 47.8099C25.13 47.2852 24.7047 46.8599 24.18 46.8599C23.6553 46.8599 23.23 47.2852 23.23 47.8099C23.23 48.3345 23.6553 48.7599 24.18 48.7599Z" fill="#FFBA0A"/>
<path d="M28.7498 48.3502C29.2745 48.3502 29.6998 47.9249 29.6998 47.4002C29.6998 46.8755 29.2745 46.4502 28.7498 46.4502C28.2251 46.4502 27.7998 46.8755 27.7998 47.4002C27.7998 47.9249 28.2251 48.3502 28.7498 48.3502Z" fill="#FFBA0A"/>
<path d="M33.16 47.0602C33.6846 47.0602 34.11 46.6348 34.11 46.1102C34.11 45.5855 33.6846 45.1602 33.16 45.1602C32.6353 45.1602 32.21 45.5855 32.21 46.1102C32.21 46.6348 32.6353 47.0602 33.16 47.0602Z" fill="#FFBA0A"/>
<path d="M37.2298 44.9298C37.7545 44.9298 38.1798 44.5045 38.1798 43.9798C38.1798 43.4551 37.7545 43.0298 37.2298 43.0298C36.7051 43.0298 36.2798 43.4551 36.2798 43.9798C36.2798 44.5045 36.7051 44.9298 37.2298 44.9298Z" fill="#FFBA0A"/>
<path d="M40.8001 42.0401C41.3248 42.0401 41.7501 41.6148 41.7501 41.0901C41.7501 40.5655 41.3248 40.1401 40.8001 40.1401C40.2754 40.1401 39.8501 40.5655 39.8501 41.0901C39.8501 41.6148 40.2754 42.0401 40.8001 42.0401Z" fill="#FFBA0A"/>
<path d="M43.7498 38.5201C44.2745 38.5201 44.6998 38.0948 44.6998 37.5701C44.6998 37.0454 44.2745 36.6201 43.7498 36.6201C43.2251 36.6201 42.7998 37.0454 42.7998 37.5701C42.7998 38.0948 43.2251 38.5201 43.7498 38.5201Z" fill="#FFBA0A"/>
<path d="M45.95 34.4801C46.4747 34.4801 46.9 34.0547 46.9 33.5301C46.9 33.0054 46.4747 32.5801 45.95 32.5801C45.4253 32.5801 45 33.0054 45 33.5301C45 34.0547 45.4253 34.4801 45.95 34.4801Z" fill="#FFBA0A"/>
<path d="M47.3201 30.1002C47.8448 30.1002 48.2701 29.6749 48.2701 29.1502C48.2701 28.6255 47.8448 28.2002 47.3201 28.2002C46.7954 28.2002 46.3701 28.6255 46.3701 29.1502C46.3701 29.6749 46.7954 30.1002 47.3201 30.1002Z" fill="#FFBA0A"/>
<path d="M47.8099 25.5299C48.3345 25.5299 48.7599 25.1046 48.7599 24.5799C48.7599 24.0552 48.3345 23.6299 47.8099 23.6299C47.2852 23.6299 46.8599 24.0552 46.8599 24.5799C46.8599 25.1046 47.2852 25.5299 47.8099 25.5299Z" fill="#FFBA0A"/>
<path d="M47.4002 20.9601C47.9249 20.9601 48.3502 20.5347 48.3502 20.0101C48.3502 19.4854 47.9249 19.0601 47.4002 19.0601C46.8755 19.0601 46.4502 19.4854 46.4502 20.0101C46.4502 20.5347 46.8755 20.9601 47.4002 20.9601Z" fill="#FFBA0A"/>
<path d="M46.1102 16.5499C46.6348 16.5499 47.0602 16.1246 47.0602 15.5999C47.0602 15.0752 46.6348 14.6499 46.1102 14.6499C45.5855 14.6499 45.1602 15.0752 45.1602 15.5999C45.1602 16.1246 45.5855 16.5499 46.1102 16.5499Z" fill="#FFBA0A"/>
<path d="M43.9798 12.4801C44.5045 12.4801 44.9298 12.0547 44.9298 11.5301C44.9298 11.0054 44.5045 10.5801 43.9798 10.5801C43.4551 10.5801 43.0298 11.0054 43.0298 11.5301C43.0298 12.0547 43.4551 12.4801 43.9798 12.4801Z" fill="#FFBA0A"/>
<path d="M41.0901 8.9C41.6148 8.9 42.0401 8.47467 42.0401 7.95C42.0401 7.42533 41.6148 7 41.0901 7C40.5655 7 40.1401 7.42533 40.1401 7.95C40.1401 8.47467 40.5655 8.9 41.0901 8.9Z" fill="#FFBA0A"/>
<path d="M37.5701 5.96006C38.0948 5.96006 38.5201 5.53473 38.5201 5.01006C38.5201 4.48539 38.0948 4.06006 37.5701 4.06006C37.0454 4.06006 36.6201 4.48539 36.6201 5.01006C36.6201 5.53473 37.0454 5.96006 37.5701 5.96006Z" fill="#FFBA0A"/>
<path d="M33.5301 3.75986C34.0547 3.75986 34.4801 3.33453 34.4801 2.80986C34.4801 2.28519 34.0547 1.85986 33.5301 1.85986C33.0054 1.85986 32.5801 2.28519 32.5801 2.80986C32.5801 3.33453 33.0054 3.75986 33.5301 3.75986Z" fill="#FFBA0A"/>
<path d="M29.1502 2.39023C29.6749 2.39023 30.1002 1.96491 30.1002 1.44023C30.1002 0.915564 29.6749 0.490234 29.1502 0.490234C28.6255 0.490234 28.2002 0.915564 28.2002 1.44023C28.2002 1.96491 28.6255 2.39023 29.1502 2.39023Z" fill="#FFBA0A"/>
<path d="M24.5799 1.9C25.1046 1.9 25.5299 1.47467 25.5299 0.95C25.5299 0.425329 25.1046 0 24.5799 0C24.0552 0 23.6299 0.425329 23.6299 0.95C23.6299 1.47467 24.0552 1.9 24.5799 1.9Z" fill="#FFBA0A"/>
<path d="M20.0101 2.31016C20.5347 2.31016 20.9601 1.88483 20.9601 1.36016C20.9601 0.835486 20.5347 0.410156 20.0101 0.410156C19.4854 0.410156 19.0601 0.835486 19.0601 1.36016C19.0601 1.88483 19.4854 2.31016 20.0101 2.31016Z" fill="#FFBA0A"/>
<path d="M24.4201 29.3202C24.0001 29.3202 23.6601 29.0002 23.6301 28.5802L22.6301 13.0002C22.5801 12.3002 23.1401 11.7002 23.8501 11.7002H24.9201C25.6201 11.7002 26.1801 12.2902 26.1401 12.9902L25.2201 28.5802C25.1901 29.0002 24.8401 29.3202 24.4201 29.3202Z" fill="black"/>
<path d="M24.3799 37.0601C25.3243 37.0601 26.0899 36.2945 26.0899 35.3501C26.0899 34.4057 25.3243 33.6401 24.3799 33.6401C23.4355 33.6401 22.6699 34.4057 22.6699 35.3501C22.6699 36.2945 23.4355 37.0601 24.3799 37.0601Z" fill="black"/>
</svg>
