<svg width="34" height="33" viewBox="0 0 34 33" fill="none" xmlns="http://www.w3.org/2000/svg">
<path d="M17.0002 22.7835C16.7359 22.7835 16.5215 22.5691 16.5215 22.3048V11.8291L11.6322 16.5892C11.4427 16.7738 11.1397 16.7696 10.9552 16.58C10.7706 16.3905 10.7748 16.0875 10.9643 15.903L16.6662 10.3517C16.8041 10.2172 17.009 10.1786 17.1863 10.2536C17.3636 10.3283 17.4789 10.5022 17.4789 10.6948V22.3048C17.4789 22.5694 17.2644 22.7835 17.0002 22.7835Z" fill="#030303"/>
<path d="M17.0002 22.7835C16.7359 22.7835 16.5215 22.5691 16.5215 22.3048V10.6948C16.5215 10.5022 16.6368 10.3287 16.8141 10.2536C16.9914 10.1786 17.1963 10.2172 17.3341 10.3517L23.036 15.903C23.2256 16.0875 23.2294 16.3905 23.0452 16.58C22.8606 16.7696 22.5577 16.7734 22.3681 16.5892L17.4789 11.8291V22.3048C17.4789 22.5694 17.2644 22.7835 17.0002 22.7835Z" fill="#030303"/>
<path d="M3.86814 14.6392C4.22241 14.6392 4.5096 14.352 4.5096 13.9978C4.5096 13.6435 4.22241 13.3563 3.86814 13.3563C3.51387 13.3563 3.22668 13.6435 3.22668 13.9978C3.22668 14.352 3.51387 14.6392 3.86814 14.6392Z" fill="#FFBA0A"/>
<path d="M4.73899 12.0271C5.09326 12.0271 5.38045 11.7399 5.38045 11.3857C5.38045 11.0314 5.09326 10.7442 4.73899 10.7442C4.38472 10.7442 4.09753 11.0314 4.09753 11.3857C4.09753 11.7399 4.38472 12.0271 4.73899 12.0271Z" fill="#FFBA0A"/>
<path d="M6.02189 9.79407C6.37616 9.79407 6.66335 9.50688 6.66335 9.15262C6.66335 8.79836 6.37616 8.51117 6.02189 8.51117C5.66762 8.51117 5.38043 8.79836 5.38043 9.15262C5.38043 9.50688 5.66762 9.79407 6.02189 9.79407Z" fill="#FFBA0A"/>
<path d="M7.54563 7.74793C7.8999 7.74793 8.18709 7.46074 8.18709 7.10648C8.18709 6.75221 7.8999 6.46503 7.54563 6.46503C7.19136 6.46503 6.90417 6.75221 6.90417 7.10648C6.90417 7.46074 7.19136 7.74793 7.54563 7.74793Z" fill="#FFBA0A"/>
<path d="M9.59184 6.13724C9.9461 6.13724 10.2333 5.85005 10.2333 5.49579C10.2333 5.14153 9.9461 4.85434 9.59184 4.85434C9.23757 4.85434 8.95038 5.14153 8.95038 5.49579C8.95038 5.85005 9.23757 6.13724 9.59184 6.13724Z" fill="#FFBA0A"/>
<path d="M12.117 4.85394C12.4713 4.85394 12.7585 4.56676 12.7585 4.21249C12.7585 3.85823 12.4713 3.57104 12.117 3.57104C11.7628 3.57104 11.4756 3.85823 11.4756 4.21249C11.4756 4.56676 11.7628 4.85394 12.117 4.85394Z" fill="#FFBA0A"/>
<path d="M14.5117 4.2125C14.866 4.2125 15.1532 3.92531 15.1532 3.57105C15.1532 3.21678 14.866 2.9296 14.5117 2.9296C14.1574 2.9296 13.8702 3.21678 13.8702 3.57105C13.8702 3.92531 14.1574 4.2125 14.5117 4.2125Z" fill="#FFBA0A"/>
<path d="M16.9856 3.57105C17.3399 3.57105 17.6271 3.28386 17.6271 2.9296C17.6271 2.57533 17.3399 2.28815 16.9856 2.28815C16.6314 2.28815 16.3442 2.57533 16.3442 2.9296C16.3442 3.28386 16.6314 3.57105 16.9856 3.57105Z" fill="#FFBA0A"/>
<path d="M30.1028 14.7545C30.457 14.7545 30.7442 14.4645 30.7442 14.1069C30.7442 13.7493 30.457 13.4593 30.1028 13.4593C29.7485 13.4593 29.4613 13.7493 29.4613 14.1069C29.4613 14.4645 29.7485 14.7545 30.1028 14.7545Z" fill="#FFBA0A"/>
<path d="M29.2323 12.1178C29.5865 12.1178 29.8737 11.8279 29.8737 11.4703C29.8737 11.1126 29.5865 10.8227 29.2323 10.8227C28.878 10.8227 28.5908 11.1126 28.5908 11.4703C28.5908 11.8279 28.878 12.1178 29.2323 12.1178Z" fill="#FFBA0A"/>
<path d="M27.949 9.86415C28.3033 9.86415 28.5905 9.57422 28.5905 9.21658C28.5905 8.85893 28.3033 8.569 27.949 8.569C27.5947 8.569 27.3076 8.85893 27.3076 9.21658C27.3076 9.57422 27.5947 9.86415 27.949 9.86415Z" fill="#FFBA0A"/>
<path d="M26.4256 7.79888C26.7798 7.79888 27.067 7.50895 27.067 7.1513C27.067 6.79365 26.7798 6.50372 26.4256 6.50372C26.0713 6.50372 25.7841 6.79365 25.7841 7.1513C25.7841 7.50895 26.0713 7.79888 26.4256 7.79888Z" fill="#FFBA0A"/>
<path d="M24.3791 6.17324C24.7333 6.17324 25.0205 5.88331 25.0205 5.52566C25.0205 5.16801 24.7333 4.87808 24.3791 4.87808C24.0248 4.87808 23.7376 5.16801 23.7376 5.52566C23.7376 5.88331 24.0248 6.17324 24.3791 6.17324Z" fill="#FFBA0A"/>
<path d="M21.8542 4.87807C22.2085 4.87807 22.4957 4.58814 22.4957 4.23049C22.4957 3.87285 22.2085 3.58292 21.8542 3.58292C21.5 3.58292 21.2128 3.87285 21.2128 4.23049C21.2128 4.58814 21.5 4.87807 21.8542 4.87807Z" fill="#FFBA0A"/>
<path d="M19.4596 4.23049C19.8138 4.23049 20.101 3.94056 20.101 3.58291C20.101 3.22526 19.8138 2.93533 19.4596 2.93533C19.1053 2.93533 18.8181 3.22526 18.8181 3.58291C18.8181 3.94056 19.1053 4.23049 19.4596 4.23049Z" fill="#FFBA0A"/>
<path d="M3.69236 17.1476C4.04663 17.1476 4.33382 16.8576 4.33382 16.5C4.33382 16.1423 4.04663 15.8524 3.69236 15.8524C3.33809 15.8524 3.0509 16.1423 3.0509 16.5C3.0509 16.8576 3.33809 17.1476 3.69236 17.1476Z" fill="#FFBA0A"/>
<path d="M3.86814 19.6433C4.22241 19.6433 4.5096 19.3561 4.5096 19.0019C4.5096 18.6476 4.22241 18.3604 3.86814 18.3604C3.51387 18.3604 3.22668 18.6476 3.22668 19.0019C3.22668 19.3561 3.51387 19.6433 3.86814 19.6433Z" fill="#FFBA0A"/>
<path d="M4.73899 22.2554C5.09326 22.2554 5.38045 21.9682 5.38045 21.614C5.38045 21.2597 5.09326 20.9725 4.73899 20.9725C4.38472 20.9725 4.09753 21.2597 4.09753 21.614C4.09753 21.9682 4.38472 22.2554 4.73899 22.2554Z" fill="#FFBA0A"/>
<path d="M6.02189 24.4885C6.37616 24.4885 6.66335 24.2013 6.66335 23.847C6.66335 23.4928 6.37616 23.2056 6.02189 23.2056C5.66762 23.2056 5.38043 23.4928 5.38043 23.847C5.38043 24.2013 5.66762 24.4885 6.02189 24.4885Z" fill="#FFBA0A"/>
<path d="M7.54563 26.5349C7.8999 26.5349 8.18709 26.2478 8.18709 25.8935C8.18709 25.5392 7.8999 25.252 7.54563 25.252C7.19136 25.252 6.90417 25.5392 6.90417 25.8935C6.90417 26.2478 7.19136 26.5349 7.54563 26.5349Z" fill="#FFBA0A"/>
<path d="M9.59184 28.1457C9.9461 28.1457 10.2333 27.8585 10.2333 27.5042C10.2333 27.1499 9.9461 26.8628 9.59184 26.8628C9.23757 26.8628 8.95038 27.1499 8.95038 27.5042C8.95038 27.8585 9.23757 28.1457 9.59184 28.1457Z" fill="#FFBA0A"/>
<path d="M12.117 29.4286C12.4713 29.4286 12.7585 29.1414 12.7585 28.7871C12.7585 28.4328 12.4713 28.1457 12.117 28.1457C11.7628 28.1457 11.4756 28.4328 11.4756 28.7871C11.4756 29.1414 11.7628 29.4286 12.117 29.4286Z" fill="#FFBA0A"/>
<path d="M14.5117 30.07C14.866 30.07 15.1532 29.7828 15.1532 29.4286C15.1532 29.0743 14.866 28.7871 14.5117 28.7871C14.1574 28.7871 13.8702 29.0743 13.8702 29.4286C13.8702 29.7828 14.1574 30.07 14.5117 30.07Z" fill="#FFBA0A"/>
<path d="M16.9856 30.7115C17.3399 30.7115 17.6271 30.4243 17.6271 30.07C17.6271 29.7158 17.3399 29.4286 16.9856 29.4286C16.6314 29.4286 16.3442 29.7158 16.3442 30.07C16.3442 30.4243 16.6314 30.7115 16.9856 30.7115Z" fill="#FFBA0A"/>
<path d="M30.1031 19.6433C30.4574 19.6433 30.7446 19.3561 30.7446 19.0019C30.7446 18.6476 30.4574 18.3604 30.1031 18.3604C29.7489 18.3604 29.4617 18.6476 29.4617 19.0019C29.4617 19.3561 29.7489 19.6433 30.1031 19.6433Z" fill="#FFBA0A"/>
<path d="M29.2323 22.2554C29.5865 22.2554 29.8737 21.9682 29.8737 21.614C29.8737 21.2597 29.5865 20.9725 29.2323 20.9725C28.878 20.9725 28.5908 21.2597 28.5908 21.614C28.5908 21.9682 28.878 22.2554 29.2323 22.2554Z" fill="#FFBA0A"/>
<path d="M27.9494 24.4885C28.3036 24.4885 28.5908 24.2013 28.5908 23.847C28.5908 23.4928 28.3036 23.2056 27.9494 23.2056C27.5951 23.2056 27.3079 23.4928 27.3079 23.847C27.3079 24.2013 27.5951 24.4885 27.9494 24.4885Z" fill="#FFBA0A"/>
<path d="M26.4256 26.5349C26.7798 26.5349 27.067 26.2478 27.067 25.8935C27.067 25.5392 26.7798 25.252 26.4256 25.252C26.0713 25.252 25.7841 25.5392 25.7841 25.8935C25.7841 26.2478 26.0713 26.5349 26.4256 26.5349Z" fill="#FFBA0A"/>
<path d="M24.3791 28.1457C24.7333 28.1457 25.0205 27.8585 25.0205 27.5042C25.0205 27.1499 24.7333 26.8628 24.3791 26.8628C24.0248 26.8628 23.7376 27.1499 23.7376 27.5042C23.7376 27.8585 24.0248 28.1457 24.3791 28.1457Z" fill="#FFBA0A"/>
<path d="M21.8542 29.4286C22.2085 29.4286 22.4957 29.1414 22.4957 28.7871C22.4957 28.4328 22.2085 28.1457 21.8542 28.1457C21.5 28.1457 21.2128 28.4328 21.2128 28.7871C21.2128 29.1414 21.5 29.4286 21.8542 29.4286Z" fill="#FFBA0A"/>
<path d="M19.4596 30.07C19.8138 30.07 20.101 29.7828 20.101 29.4286C20.101 29.0743 19.8138 28.7871 19.4596 28.7871C19.1053 28.7871 18.8181 29.0743 18.8181 29.4286C18.8181 29.7828 19.1053 30.07 19.4596 30.07Z" fill="#FFBA0A"/>
<path d="M30.3077 17.1414C30.6619 17.1414 30.9491 16.8542 30.9491 16.5C30.9491 16.1457 30.6619 15.8585 30.3077 15.8585C29.9534 15.8585 29.6662 16.1457 29.6662 16.5C29.6662 16.8542 29.9534 17.1414 30.3077 17.1414Z" fill="#FFBA0A"/>
<path d="M17.0002 33C14.7729 33 12.6119 32.5638 10.5776 31.7033C8.61261 30.8723 6.84832 29.6825 5.33295 28.1675C3.81758 26.6521 2.62811 24.8879 1.79708 22.9229C0.936191 20.8879 0.5 18.7273 0.5 16.5C0.5 14.2727 0.936191 12.1117 1.7967 10.0775C2.62772 8.11252 3.81758 6.34825 5.33257 4.83289C6.84755 3.31754 8.61223 2.12808 10.5772 1.29707C12.6119 0.436186 14.7729 0 17.0002 0C19.2275 0 21.3885 0.436186 23.4228 1.29669C25.3878 2.1277 27.1521 3.31754 28.6674 4.83251C30.1828 6.34786 31.3723 8.11214 32.2033 10.0771C33.0638 12.1117 33.5 14.2724 33.5 16.4996C33.5 18.7269 33.0638 20.8879 32.2033 22.9222C31.3723 24.8871 30.1824 26.6514 28.6674 28.1667C27.1524 29.6821 25.3878 30.8715 23.4228 31.7026C21.3881 32.5634 19.2275 33 17.0002 33ZM17.0002 0.957388C8.42994 0.957388 1.4574 7.92985 1.4574 16.5C1.4574 25.0702 8.42994 32.0426 17.0002 32.0426C25.5704 32.0426 32.543 25.0702 32.543 16.5C32.5426 7.92985 25.5704 0.957388 17.0002 0.957388Z" fill="#030303"/>
</svg>
