<svg width="175" height="219" viewBox="0 0 175 219" fill="none" xmlns="http://www.w3.org/2000/svg">
<path d="M103.49 112.93C103.38 112.84 103.28 112.75 103.17 112.65C103.17 112.65 103.17 117.96 85.58 119.76C67.99 121.56 64.43 114 64.43 114C64.34 114.06 64.24 114.12 64.13 114.17C63.67 114.43 63.18 114.66 62.69 114.86C61.7 115.26 60.64 115.54 59.58 115.69C58.5 115.85 57.42 115.88 56.33 115.78C55.86 115.74 55.37 115.67 54.91 115.58C54.64 115.69 54.36 115.8 54.08 115.9C52.9 116.32 51.66 116.64 50.39 116.77C49.12 116.9 47.84 116.82 46.6 116.5C46 116.33 45.4 116.11 44.85 115.82C44.57 115.68 44.3 115.51 44.05 115.33C43.92 115.24 43.8 115.14 43.68 115.05C43.55 114.95 43.44 114.85 43.33 114.74C43.59 114.76 43.86 114.81 44.12 114.82C44.26 114.83 44.38 114.85 44.52 114.85L44.91 114.87C45.44 114.88 45.95 114.87 46.47 114.81C47.49 114.7 48.48 114.44 49.4 114.02C49.7 113.89 49.97 113.75 50.24 113.6C50.23 113.59 50.22 113.58 50.21 113.57C49.31 112.96 48.49 112.26 47.73 111.51C46.97 110.75 46.27 109.94 45.65 109.08C45.33 108.65 45.05 108.21 44.79 107.75C44.52 107.29 44.27 106.82 44.07 106.34C45.75 107.8 47.58 108.98 49.55 109.82C50.84 110.37 52.17 110.78 53.52 111.03C53.75 110.8 53.98 110.56 54.21 110.32C54.55 109.94 54.9 109.55 55.21 109.15C55.54 108.74 55.84 108.33 56.15 107.91C56.47 107.44 56.79 106.97 57.09 106.49C56.54 106.68 55.98 106.85 55.41 106.98C54.51 107.19 53.59 107.32 52.66 107.35C52.43 107.36 52.2 107.35 51.96 107.35L51.6 107.34C51.48 107.33 51.37 107.32 51.25 107.31L50.9 107.28C50.78 107.27 50.67 107.26 50.55 107.24L49.85 107.13C48.03 106.77 46.26 106.05 44.75 104.98C43.28 103.97 42.04 102.64 41.19 101.12C41 101.05 40.8 100.98 40.61 100.9C39.75 100.56 38.92 100.15 38.12 99.68C36.54 98.74 35.09 97.54 33.93 96.09C32.78 94.65 31.92 92.95 31.55 91.15C31.36 90.25 31.28 89.34 31.33 88.43C31.37 87.52 31.56 86.63 31.87 85.79C32.06 86.41 32.3 87.01 32.63 87.55C32.96 88.09 33.34 88.59 33.78 89.02C34.68 89.88 35.77 90.48 36.94 90.87H36.95C36.26 90.46 35.63 89.97 35.06 89.42C34.16 88.54 33.41 87.51 32.96 86.36C32.76 86.2 32.58 86.04 32.39 85.87C33.65 86.3 34.86 86.63 36.08 86.8C36.18 86.81 36.27 86.83 36.36 86.84C35.81 86.71 35.28 86.55 34.77 86.37C32.93 85.71 31.25 84.66 29.84 83.34C28.45 82.02 27.31 80.44 26.56 78.71C26.65 78.82 26.74 78.92 26.83 79.02C27.95 80.24 29.38 81.13 30.91 81.65C32.58 82.22 34.36 82.4 36.09 82.18C36.31 82.16 36.52 82.12 36.73 82.08C36.94 82.04 37.16 82 37.36 81.94C37.78 81.84 38.19 81.71 38.6 81.56C39.02 81.4 39.43 81.21 39.83 80.99C39.37 80.88 38.9 80.75 38.45 80.6C36.71 80.02 35.05 79.11 33.69 77.82C32.33 76.52 31.34 74.84 30.85 73C30.62 72.08 30.51 71.12 30.58 70.15C30.63 69.32 30.81 68.48 31.14 67.7C31.19 67.58 31.25 67.46 31.3 67.34L31.65 66.61C31.07 66.47 30.49 66.32 29.91 66.16L29.41 66.01L29.16 65.93C29.08 65.9 28.99 65.87 28.91 65.84C28.56 65.71 28.22 65.55 27.89 65.35C27.56 65.14 27.24 64.88 26.95 64.53C26.69 64.17 26.49 63.69 26.49 63.2C26.49 62.7 26.65 62.28 26.81 61.93C26.89 61.75 26.98 61.6 27.07 61.44C27.15 61.29 27.24 61.13 27.33 60.98C27.7 60.38 28.1 59.81 28.52 59.26C28.95 58.72 29.4 58.19 29.85 57.68C30.75 56.66 31.67 55.69 32.52 54.68C33.35 53.67 34.11 52.59 34.7 51.41C34.93 50.94 35.13 50.46 35.29 49.95C35.29 49.94 35.28 49.93 35.28 49.92C35.09 48.54 35.14 47.11 35.52 45.79C35.17 45.02 34.87 44.23 34.62 43.41C34.36 42.52 34.17 41.6 34.09 40.66C34.01 39.72 34.04 38.78 34.2 37.84C34.24 37.61 34.28 37.38 34.34 37.14L34.54 36.46C34.62 36.24 34.71 36.02 34.79 35.8C34.83 35.69 34.88 35.58 34.94 35.47L35.09 35.15C35.52 34.31 36.1 33.54 36.76 32.88C38.08 31.55 39.7 30.58 41.44 29.99C42.32 29.7 43.21 29.5 44.12 29.38C45.02 29.26 45.92 29.21 46.83 29.24C47.41 29.25 47.98 29.29 48.56 29.35C48.54 29.15 48.53 28.95 48.52 28.75C48.5 28.19 48.5 27.64 48.51 27.08C48.15 25.92 47.91 24.72 47.77 23.51C47.7 22.8 47.66 22.08 47.66 21.37C47.66 20.65 47.69 19.94 47.78 19.22C47.93 17.79 48.25 16.38 48.72 15.01C49.64 12.27 51.23 9.74 53.34 7.72C53.87 7.22 54.42 6.74 55.01 6.31C55.59 5.88 56.19 5.46 56.82 5.1C58.08 4.36 59.4 3.77 60.79 3.31C62.18 2.86 63.61 2.56 65.06 2.42C65.14 2.41 65.23 2.41 65.31 2.4C65.57 2.23 65.83 2.05 66.11 1.91C66.26 1.83 66.39 1.74 66.54 1.67L67 1.46L67.22 1.36C67.3 1.33 67.38 1.3 67.45 1.27L67.92 1.09C69.19 0.64 70.53 0.4 71.86 0.3C73.2 0.2 74.55 0.25 75.88 0.4C77.21 0.55 78.53 0.8 79.82 1.16C80.36 1.31 80.89 1.47 81.4 1.66C82.05 1.66 82.7 1.73 83.34 1.83C84.28 1.98 85.19 2.23 86.08 2.51C86.52 2.65 86.97 2.8 87.4 2.96C87.83 3.12 88.26 3.28 88.71 3.45C89.14 3.62 89.59 3.81 90.02 4.02C90.45 4.24 90.88 4.48 91.29 4.77C91.5 4.92 91.71 5.09 91.91 5.26C92.36 4.85 92.86 4.49 93.38 4.15C93.93 3.78 94.51 3.45 95.1 3.14C95.69 2.83 96.29 2.56 96.9 2.3C97.51 2.04 98.12 1.8 98.75 1.57C99.37 1.34 100.01 1.13 100.65 0.94C101.28 0.75 101.94 0.59 102.59 0.45C103.9 0.17 105.25 0 106.61 0C106.93 0 107.24 0.01 107.56 0.03H107.62C107.97 0.06 108.31 0.08 108.64 0.13C109.32 0.21 109.99 0.35 110.64 0.52C110.98 0.6 111.29 0.71 111.62 0.81C111.95 0.92 112.26 1.03 112.58 1.17C112.9 1.29 113.2 1.44 113.52 1.58C113.83 1.74 114.13 1.88 114.43 2.05C115.02 2.37 115.6 2.74 116.15 3.14C116.43 3.33 116.7 3.54 116.97 3.75C117.23 3.97 117.5 4.18 117.75 4.4C118.26 4.85 118.74 5.32 119.19 5.82C119.65 6.31 120.09 6.84 120.5 7.38C120.91 7.92 121.29 8.48 121.64 9.06C122 9.64 122.31 10.23 122.61 10.84C123.77 13.29 124.39 15.96 124.58 18.63L124.62 19.63C124.63 19.8 124.63 19.97 124.63 20.13V20.63L124.62 21.13L124.6 21.63C124.59 21.68 124.59 21.72 124.59 21.77C124.84 21.97 125.09 22.19 125.32 22.41C125.6 22.67 125.86 22.95 126.12 23.23C126.36 23.52 126.61 23.81 126.84 24.12C127.29 24.72 127.7 25.36 128.07 26.02C128.82 27.33 129.39 28.73 129.84 30.17C130.28 31.61 130.61 33.09 130.75 34.58C130.85 35.48 130.89 36.38 130.87 37.28C130.88 37.33 130.89 37.39 130.9 37.44C131.11 37.46 131.31 37.49 131.52 37.52C132.65 37.7 133.79 38.08 134.8 38.73C135.3 39.05 135.77 39.44 136.18 39.88C136.59 40.32 136.94 40.81 137.25 41.31C137.57 41.81 137.82 42.34 138.06 42.86C138.28 43.39 138.49 43.92 138.68 44.47C139.4 46.65 139.72 48.97 139.61 51.26C139.58 51.84 139.53 52.43 139.44 53.01L139.75 53.32L142.01 55.57C142.77 56.33 143.52 57.11 144.21 57.97C144.9 58.82 145.54 59.73 146.01 60.74C147.11 62.94 147.49 65.42 147.2 67.79C147.45 68.79 147.62 69.81 147.71 70.83C147.86 72.65 147.74 74.51 147.31 76.3C146.89 78.09 146.13 79.83 144.99 81.31C144.42 82.05 143.76 82.72 143.03 83.3C142.29 83.88 141.49 84.36 140.66 84.75C139.83 85.14 138.97 85.46 138.11 85.72C137.25 85.98 136.38 86.19 135.52 86.38C135.27 86.44 135.02 86.49 134.78 86.54L134.81 86.55C134.97 86.58 135.13 86.61 135.3 86.64C136.84 86.9 138.38 86.91 139.71 86.6C139.83 86.57 139.93 86.55 140.04 86.52C138.93 87.27 137.51 87.78 135.89 88.04C134.28 88.3 132.46 88.3 130.61 88C130.36 87.96 130.11 87.92 129.86 87.87L129.76 87.91C130.78 88.19 131.83 88.41 132.92 88.6C132.71 88.64 132.49 88.66 132.28 88.68C131.58 89.19 130.65 89.53 129.6 89.71C128.94 89.82 128.23 89.88 127.5 89.86H127.51C128.69 90.06 129.85 90.12 130.89 89.94C131.41 89.85 131.88 89.7 132.31 89.5C132.73 89.29 133.11 89.03 133.44 88.73C133.52 89.34 133.48 89.94 133.3 90.5C133.13 91.06 132.84 91.57 132.45 92.03C131.67 92.96 130.47 93.65 129.05 94.07C127.92 94.41 126.66 94.59 125.33 94.63C125.7 95.68 126.19 96.68 127.04 97.53C126.44 97.33 125.89 96.96 125.44 96.5C124.98 96.04 124.62 95.5 124.3 94.94C124.25 94.84 124.19 94.73 124.14 94.63C123.98 94.62 123.83 94.62 123.69 94.61C123.62 95.43 123.71 96.27 124 97.05C124.28 97.86 124.82 98.59 125.54 99.11C124.99 98.9 124.44 98.68 123.91 98.43C123.36 98.18 122.83 97.91 122.32 97.61C121.86 97.34 121.4 97.04 120.97 96.71C121.05 97.34 121.18 97.95 121.36 98.55C121.58 99.26 121.85 99.93 122.24 100.56C122.43 100.86 122.64 101.15 122.89 101.42C123.5 101.69 124.15 101.89 124.81 102.04C125.92 102.29 127.07 102.33 128.29 102.13C128.23 102.26 128.16 102.4 128.1 102.53C128.03 102.66 127.94 102.78 127.87 102.91C127.79 103.03 127.69 103.15 127.6 103.27C127.5 103.39 127.4 103.5 127.3 103.61C126.88 104.05 126.37 104.41 125.84 104.71C124.77 105.31 123.59 105.67 122.41 105.89C121.23 106.11 120.04 106.21 118.82 106.2C117.61 106.19 116.39 106.04 115.2 105.74L114.76 105.62C114.61 105.58 114.46 105.53 114.32 105.48C114.04 105.39 113.75 105.27 113.46 105.16C113.32 105.1 113.19 105.03 113.04 104.97L112.84 104.87C112.77 104.84 112.69 104.8 112.63 104.76L112.22 104.54L111.83 104.3L111.63 104.18L111.44 104.04L111.06 103.77L110.69 103.47C110.64 103.42 110.57 103.37 110.51 103.32L110.34 103.16C109.89 102.74 109.49 102.27 109.12 101.78C108.73 101.24 108.39 100.67 108.13 100.07C108.25 100.73 108.4 101.38 108.63 102.02C109.34 104.17 110.63 106.08 112.31 107.56C113.15 108.3 114.08 108.93 115.08 109.42C116.08 109.92 117.18 110.28 118.3 110.58C118.86 110.73 119.43 110.87 120 111.01C120.57 111.15 121.13 111.28 121.7 111.36C122.27 111.45 122.84 111.49 123.41 111.45C123.56 111.44 123.69 111.42 123.84 111.4C123.98 111.37 124.12 111.35 124.26 111.31H124.27C124.54 111.22 124.82 111.12 125.08 111.01C124.73 111.31 124.32 111.54 123.88 111.71C123.08 112.1 122.22 112.4 121.35 112.62C120.69 112.79 120.01 112.91 119.32 112.98C118.65 113.06 117.95 113.09 117.26 113.08C116.03 113.06 114.78 112.93 113.57 112.65C113.81 113.14 114.03 113.63 114.27 114.11C114.53 114.67 114.81 115.22 115.11 115.85C113.82 115.64 112.6 115.09 111.5 114.36C110.41 113.62 109.44 112.69 108.65 111.63C108.14 110.96 107.72 110.23 107.37 109.47C107.48 110.18 107.61 110.86 107.8 111.53C107.99 112.22 108.24 112.9 108.57 113.56C108.89 114.23 109.28 114.86 109.76 115.54C108.65 115.35 107.6 115.05 106.55 114.64C106.05 114.44 105.57 114.22 105.11 113.96C105.24 114.46 105.36 114.96 105.51 115.47C105.72 116.24 105.96 117.02 106.17 117.86C105.47 117.32 104.95 116.63 104.51 115.89C104.08 115.14 103.76 114.33 103.57 113.49C103.57 113.37 103.52 113.15 103.49 112.93Z" fill="#E45F30"/>
<path d="M100.88 99.1899C99.09 116.54 107.61 122.96 110.92 124.15L113.22 125.05L118.02 135.22L103.48 166.54L85.8001 176.62L61.55 128.17C73.78 129.87 71.9 107.35 72.39 100.77C70.98 86.7299 101.95 88.7399 100.88 99.1899Z" fill="#E2AC88"/>
<path d="M152.34 149.87C150.99 158.91 149.04 172.14 146.91 186.72C146.14 192.05 145.34 197.56 144.54 203.11C144.51 203.3 144.48 203.5 144.45 203.69C144.18 203.84 143.91 203.99 143.64 204.12C142.77 204.6 141.89 205.06 141 205.5C135.51 208.27 129.77 210.63 123.83 212.54C112.03 216.36 99.44 218.42 86.36 218.42C74.01 218.42 62.08 216.58 50.85 213.16C44.52 211.23 38.41 208.81 32.57 205.91C32.55 205.92 32.53 205.91 32.51 205.89L32.5 205.88C32.2 205.74 31.89 205.59 31.59 205.43C31.56 205.24 31.53 205.05 31.5 204.86C31.48 204.69 31.46 204.53 31.43 204.37V204.36C30.56 198.32 29.69 192.33 28.86 186.55C28.19 181.97 27.54 177.53 26.92 173.31C25.57 164.15 24.37 156.03 23.45 149.87C22.42 142.82 26.63 136.06 33.41 133.91L39.72 131.91L69.71 122.4H87.86L87.9 122.59V122.4H106.08L109.53 123.49H109.54L109.56 123.5L140.24 133.24L142.36 133.91C149.15 136.06 153.37 142.82 152.34 149.87Z" fill="#E2AC88"/>
<path d="M174.99 180.13C166.95 188.68 157.67 196.07 147.45 202.01C146.8 202.39 146.15 202.76 145.49 203.11C145.15 203.32 144.8 203.51 144.45 203.69C144.18 203.84 143.91 203.99 143.64 204.12C142.77 204.6 141.89 205.06 141 205.5C135.51 208.27 129.77 210.63 123.83 212.54C112.03 216.36 99.44 218.42 86.36 218.42C74.01 218.42 62.08 216.58 50.85 213.16C44.52 211.23 38.41 208.81 32.57 205.91C32.55 205.92 32.53 205.91 32.51 205.89L32.5 205.88C32.2 205.74 31.89 205.59 31.59 205.43C31.05 205.16 30.5 204.88 29.97 204.6C28.88 204.04 27.81 203.45 26.75 202.85C16.9 197.32 7.9 190.44 0 182.48L1.42 158.01C1.87 148.49 8.42 140.33 17.64 137.79C24.21 135.99 32.08 133.86 39.71 131.89C39.72 131.9 39.72 131.9 39.72 131.91C48.18 143.23 60.67 150.31 74.07 153.19C86.37 155.83 99.45 154.95 110.89 150.59C120.65 146.87 129.23 140.63 135.13 131.89L140.24 133.24L158.68 138.1C167.45 140.42 173.69 148.16 174.06 157.2L174.99 180.13Z" fill="#F69471"/>
<path d="M32.5701 205.91C32.5501 205.92 32.5301 205.91 32.5101 205.89L32.5001 205.88C32.2001 205.74 31.8901 205.59 31.5901 205.43C31.0501 205.16 30.5001 204.88 29.9701 204.6L29.6801 202.49C30.2301 203.34 30.8401 204.13 31.5001 204.86C31.8001 205.18 32.1101 205.49 32.4201 205.78C32.4701 205.83 32.5201 205.88 32.5701 205.91Z" fill="#E38463"/>
<path d="M123.83 212.54C112.03 216.36 99.44 218.42 86.36 218.42C74.01 218.42 62.08 216.58 50.85 213.16C67.87 215.35 87.63 210.65 87.63 210.65L87.67 210.66V210.65C87.67 210.65 106.95 214.82 123.83 212.54Z" fill="#F69471"/>
<path d="M145.7 201.51L145.49 203.11C145.15 203.32 144.8 203.51 144.45 203.69C144.18 203.84 143.91 203.99 143.64 204.12C143.96 203.79 144.26 203.46 144.54 203.11C144.95 202.6 145.34 202.07 145.7 201.51Z" fill="#E38463"/>
<path d="M147.45 202.01C146.8 202.39 146.15 202.76 145.49 203.11C145.15 203.32 144.8 203.51 144.45 203.69C144.18 203.84 143.91 203.99 143.64 204.12C142.77 204.6 141.89 205.06 141 205.5C144.85 200.42 146.95 190.62 141.42 169.94C143.08 167.19 146.06 162.48 146.06 162.48L146.91 186.72L147.45 202.01Z" fill="#E38463"/>
<path d="M32.5 205.88C32.2 205.74 31.89 205.59 31.59 205.43C31.05 205.16 30.5 204.88 29.97 204.6C28.88 204.04 27.81 203.45 26.75 202.85L26.92 173.31L26.98 162.48C26.98 162.48 30.45 167.2 32.16 169.95C30.35 176.52 29.31 181.98 28.86 186.55C27.96 195.35 29.25 200.82 31.43 204.36V204.37C31.75 204.88 32.08 205.35 32.42 205.78C32.45 205.81 32.48 205.84 32.5 205.88Z" fill="#E38463"/>
<path d="M90.7601 74.71C89.1801 72.28 89.6301 63.49 90.0401 60.54C90.28 58.79 91.0401 56.72 89.9001 55.42C88.5401 53.86 84.84 54.98 84.31 57.17C83.98 58.5 84.6401 58.89 85.0801 60.01C85.7301 61.66 85.8301 68.75 85.8301 68.75C85.9601 69.91 85.9501 71.09 85.7901 72.34C85.7801 72.44 85.7701 72.53 85.7601 72.62C85.7001 72.64 84.98 73.86 84.53 74.32C84.08 74.78 83.51 75.07 83.49 75.93C83.45 77.24 84.5801 77.69 85.3301 77.23C85.3901 77.27 85.45 77.31 85.49 77.36C85.99 77.95 86.1101 79.3 86.7901 79.76C88.3901 80.88 89.23 78.71 89.77 77.11C90.36 77.36 91.65 77.37 91.85 76.24C92.08 74.9 91.2201 75.4 90.7601 74.71Z" fill="url(#paint0_linear_124_1027)"/>
<path d="M112.67 59.6902C112.39 59.6002 112.09 59.5602 111.78 59.5502C111.76 58.4702 111.73 57.4002 111.66 56.3202C111.39 52.0802 110.72 47.8102 109.44 43.7402C101.4 23.2502 78.4 15.3402 63.74 32.9602C59.07 38.5702 56.57 45.7402 55.93 52.9002C55.59 56.6602 55.87 59.8702 56.72 62.9102C55.49 63.2802 54.4 64.1002 54.2 65.2902C53.9 67.0602 53.74 68.9002 54.35 70.6402C54.81 71.9402 55.67 73.1502 56.68 74.2002C57.46 76.6602 60.74 78.1602 63.38 76.8502C65.42 82.1202 66.4 87.9502 68.84 93.0002C72.33 100.19 79.26 106.87 87.58 106.56C92.39 106.38 96.85 103.85 100.04 100.43C103.23 97.0102 105.27 92.7702 106.89 88.4702C108.5 84.1602 109.71 79.7202 110.53 75.2202C111.63 75.3302 112.8 75.0602 113.73 74.6602C115.78 73.7802 117.32 71.5602 117.65 69.3602C119.45 65.3902 117.27 61.1302 112.67 59.6902Z" fill="#E5BC95"/>
<path fill-rule="evenodd" clip-rule="evenodd" d="M96.8501 27.31C96.1601 28.38 96.4901 29.38 96.3801 30.62C96.1801 32.92 95.2201 35.13 94.0301 37.14C91.6801 41.1 88.2501 45.51 84.0301 47.74C86.2201 43.73 87.2301 39.39 89.1101 35.3C87.1801 40.05 81.1701 41.9 76.9301 44.15C72.0001 46.76 65.4101 50.39 59.7801 50.9C62.0701 57.03 60.1601 64.69 62.0601 71.02C62.9901 74.09 64.2101 75.73 66.2901 78.11C62.3901 76.87 60.1101 72.14 58.6001 68.75C56.8701 64.83 55.7201 60 54.5401 55.83C53.0101 50.5 52.5301 45.16 53.1801 39.63C54.1801 31.08 58.3101 20.18 65.3901 14.49C68.7701 11.79 72.9901 10.68 77.2501 10.22C82.8701 9.59998 90.9101 8.79998 96.2201 10.96C100.9 12.85 105.66 16.35 104.14 21.74C113.97 26.68 114.59 40.64 113.83 49.93C113.1 59.03 111.63 67.42 107.04 75.43C110.27 69.4 111.39 60.36 109.44 53.7C108.51 50.53 106.73 47.82 105.31 44.9C103.37 40.9 103.54 36.02 103 31.71C102.85 33.66 96.1101 43.86 93.9401 42.56C97.6201 39.01 100.19 32 96.8501 27.31Z" fill="#E45F30"/>
<path d="M78.84 49.4102C76.44 47.9902 73.41 48.6202 70.88 49.4802C68.91 50.1502 66.11 51.0802 65.56 53.1402C65.4 53.7002 66.34 54.1102 66.71 53.6202C67.78 52.2102 69.95 51.8302 71.66 51.3602C73.93 50.7402 75.69 50.8802 77.99 51.0902C78.92 51.1802 79.8 49.9702 78.84 49.4102Z" fill="#E45F30"/>
<path d="M104.34 51.03C101.26 46.84 95.21 46.82 91.25 48.76C90.62 49.07 90.8 50.37 91.46 50.43C93.43 50.58 95.37 50.02 97.35 50.14C99.56 50.27 101.31 51.16 103.16 52.62C103.95 53.24 105.05 51.99 104.34 51.03Z" fill="#E45F30"/>
<path d="M73.45 61.4301C74.4607 61.4301 75.28 60.0735 75.28 58.4001C75.28 56.7267 74.4607 55.3701 73.45 55.3701C72.4393 55.3701 71.62 56.7267 71.62 58.4001C71.62 60.0735 72.4393 61.4301 73.45 61.4301Z" fill="#4C2B28"/>
<path d="M98.7699 61.4301C99.7806 61.4301 100.6 60.0735 100.6 58.4001C100.6 56.7267 99.7806 55.3701 98.7699 55.3701C97.7593 55.3701 96.9399 56.7267 96.9399 58.4001C96.9399 60.0735 97.7593 61.4301 98.7699 61.4301Z" fill="#4C2B28"/>
<path d="M86.83 90.0098C90.7567 90.0098 93.94 89.683 93.94 89.2798C93.94 88.8766 90.7567 88.5498 86.83 88.5498C82.9032 88.5498 79.72 88.8766 79.72 89.2798C79.72 89.683 82.9032 90.0098 86.83 90.0098Z" fill="#976638"/>
<defs>
<linearGradient id="paint0_linear_124_1027" x1="87.6814" y1="65.2737" x2="87.6814" y2="102.748" gradientUnits="userSpaceOnUse">
<stop stop-color="#E1AC88"/>
<stop offset="0.0027027" stop-color="#E1AC88"/>
<stop offset="1" stop-color="#E64433"/>
</linearGradient>
</defs>
</svg>
