<svg width="112" height="38" viewBox="0 0 112 38" fill="none" xmlns="http://www.w3.org/2000/svg">
<path d="M18.6656 0.333008L19.2704 2.29028H21.2277L19.6443 3.49989L20.249 5.45716L18.6656 4.24678L17.0826 5.45716L17.6874 3.49989L16.1035 2.29028H18.0608L18.6656 0.333008Z" fill="#303030"/>
<path d="M18.6656 32.5414L19.2704 34.4993H21.2277L19.6443 35.7087L20.249 37.6656L18.6656 36.4563L17.0826 37.6656L17.6874 35.7087L16.1035 34.4993H18.0608L18.6656 32.5414Z" fill="#303030"/>
<path d="M26.7183 3.26176L27.3228 5.21901H29.2804L27.6967 6.42911L28.3016 8.38592L26.7183 7.17582L25.1347 8.38592L25.7395 6.42911L24.1562 5.21901H26.1138L26.7183 3.26176Z" fill="#303030"/>
<path d="M33.2284 24.3329L33.8328 26.2908H35.7902L34.2067 27.5003L34.8119 29.457L33.2284 28.2479L31.6447 29.457L32.2496 27.5003L30.666 26.2908H32.6235L33.2284 24.3329Z" fill="#303030"/>
<path d="M34.7722 16.438L35.3767 18.3951H37.3341L35.7506 19.6046L36.3554 21.5621L34.7722 20.3531L33.1887 21.5621L33.7939 19.6046L32.21 18.3951H34.167L34.7722 16.438Z" fill="#303030"/>
<path d="M2.56244 16.438L3.16696 18.3951H5.12416L3.54052 19.6046L4.14577 21.5621L2.56244 20.3531L0.978702 21.5621L1.58364 19.6046L0 18.3951H1.95751L2.56244 16.438Z" fill="#303030"/>
<path d="M3.89545 24.3329L4.49997 26.2908H6.45716L4.87394 27.5003L5.47836 29.457L3.89545 28.2479L2.31181 29.457L2.91665 27.5003L1.33301 26.2908H3.29062L3.89545 24.3329Z" fill="#303030"/>
<path d="M33.2284 8.33328L33.8328 10.2912H35.7902L34.2067 11.5007L34.8119 13.4574L33.2284 12.2483L31.6447 13.4574L32.2496 11.5007L30.666 10.2912H32.6235L33.2284 8.33328Z" fill="#303030"/>
<path d="M4.56342 8.33328L5.16794 10.2912H7.12513L5.54191 11.5007L6.14633 13.4574L4.56342 12.2483L2.97978 13.4574L3.58461 11.5007L2.00098 10.2912H3.95859L4.56342 8.33328Z" fill="#303030"/>
<path d="M28.1824 31.0778L28.7868 33.0348H30.7443L29.1603 34.245L29.7655 36.202L28.1824 34.9925L26.5984 36.202L27.2037 34.245L25.6201 33.0348H27.5776L28.1824 31.0778Z" fill="#303030"/>
<path d="M10.6139 3.26176L11.2183 5.21901H13.1759L11.5923 6.42911L12.1975 8.38592L10.6139 7.17582L9.03056 8.38592L9.6354 6.42911L8.05176 5.21901H10.009L10.6139 3.26176Z" fill="#303030"/>
<path d="M9.14981 31.0778L9.75459 33.0358H11.712L10.1285 34.2449L10.7333 36.202L9.14981 34.9932L7.56662 36.202L8.1714 34.2449L6.58789 33.0358H8.54493L9.14981 31.0778Z" fill="#303030"/>
<path fill-rule="evenodd" clip-rule="evenodd" d="M49.334 13.127C49.334 16.8924 52.2182 19.2547 55.7613 19.2547C58.0046 19.2547 59.7316 18.3488 61.0134 16.9457V12.31H55.2805V14.8499H58.0046V15.8445C57.5239 16.2352 56.6871 16.5549 55.7613 16.5549C53.8206 16.5549 52.4497 15.063 52.4497 13.127C52.4497 11.1911 53.8206 9.69911 55.7613 9.69911C56.8829 9.69911 57.7909 10.3208 58.2716 11.1023L60.8354 9.7524C59.963 8.27821 58.3606 6.9994 55.7613 6.9994C52.2182 6.9994 49.334 9.36165 49.334 13.127ZM62.8117 19.0415V7.19478H67.7968C71.5356 7.19478 74.2241 9.4327 74.2241 13.1093C74.2241 16.7858 71.5357 19.0415 67.8146 19.0415H62.8117ZM65.874 16.3773H67.7968C69.8799 16.3773 71.0906 14.8676 71.0906 13.1093C71.0906 11.2799 69.9867 9.85896 67.8146 9.85896H65.874V16.3773ZM75.7552 19.0415V7.19478H81.7018C84.3724 7.19478 85.8323 8.98866 85.8323 11.1378C85.8323 13.2691 84.3724 15.0275 81.7018 15.0275H78.8175V19.0415H75.7552ZM82.7166 11.12C82.7166 10.303 82.1113 9.77016 81.2923 9.77016H78.8175V12.4343H81.2923C82.1113 12.4343 82.7166 11.9193 82.7166 11.12ZM93.8263 19.0415L91.8323 15.0275H90.2655V19.0415H87.2032V7.19478H93.1498C95.7848 7.19478 97.2803 8.93538 97.2803 11.1378C97.2803 13.1981 96.0162 14.2993 94.9124 14.69L97.3337 19.0415H93.8263ZM94.1646 11.1023C94.1646 10.2852 93.4881 9.77016 92.6869 9.77016H90.2655V12.4343H92.6869C93.4881 12.4343 94.1646 11.9193 94.1646 11.1023Z" fill="#303030"/>
<path d="M22.8568 17.8481H22.2853V16.0753C22.2853 14.0121 20.6615 12.3329 18.6663 12.3329C16.6711 12.3329 15.0473 14.0121 15.0473 16.0753V17.8481H14.4759C13.8449 17.8481 13.333 18.3774 13.333 19.0299V23.7571C13.333 24.4096 13.8449 24.9389 14.4759 24.9389H22.8568C23.4877 24.9389 23.9996 24.4096 23.9996 23.7571V19.0299C23.9996 18.3774 23.4877 17.8481 22.8568 17.8481ZM20.3806 17.8481H16.952V16.0753C16.952 15.0979 17.7211 14.3026 18.6663 14.3026C19.6115 14.3026 20.3806 15.0979 20.3806 16.0753V17.8481Z" fill="#303030"/>
<path d="M55.5206 27.6773H56.5339C56.4771 27.272 56.3562 26.9164 56.1713 26.6107C55.9864 26.2978 55.7553 26.0382 55.478 25.832C55.2006 25.6258 54.8842 25.4693 54.5286 25.3627C54.1731 25.256 53.7962 25.2027 53.398 25.2027C52.8149 25.2027 52.2957 25.3093 51.8406 25.5227C51.3926 25.7289 51.0158 26.0133 50.71 26.376C50.4113 26.7387 50.1838 27.1653 50.0273 27.656C49.8709 28.1395 49.7926 28.6587 49.7926 29.2133C49.7926 29.768 49.8638 30.2871 50.006 30.7706C50.1553 31.2542 50.3758 31.6738 50.6673 32.0293C50.9589 32.3849 51.3251 32.6657 51.766 32.872C52.2069 33.0711 52.7224 33.1706 53.3126 33.1706C54.2868 33.1706 55.0548 32.904 55.6166 32.3706C56.1784 31.8373 56.5091 31.0906 56.6086 30.1307H55.5953C55.574 30.4435 55.51 30.7351 55.4033 31.0053C55.2966 31.2755 55.1473 31.5102 54.9553 31.7093C54.7704 31.9013 54.5464 32.0542 54.2833 32.168C54.0273 32.2746 53.7322 32.328 53.398 32.328C52.9429 32.328 52.5517 32.2426 52.2246 32.072C51.8975 31.9013 51.6273 31.6738 51.414 31.3893C51.2078 31.0978 51.0549 30.76 50.9553 30.376C50.8558 29.9849 50.806 29.5724 50.806 29.1387C50.806 28.7404 50.8558 28.3564 50.9553 27.9867C51.0549 27.6169 51.2078 27.2898 51.414 27.0053C51.6273 26.7138 51.894 26.4827 52.214 26.312C52.5411 26.1413 52.9322 26.056 53.3873 26.056C53.9206 26.056 54.3793 26.1911 54.7633 26.4613C55.1544 26.7316 55.4068 27.1369 55.5206 27.6773ZM58.4505 29.192C58.4505 28.808 58.5003 28.4311 58.5999 28.0613C58.6994 27.6844 58.8559 27.3467 59.0692 27.048C59.2825 26.7493 59.5563 26.5111 59.8905 26.3333C60.2247 26.1484 60.623 26.056 61.0852 26.056C61.5474 26.056 61.9456 26.1484 62.2798 26.3333C62.6141 26.5111 62.8878 26.7493 63.1012 27.048C63.3145 27.3467 63.4709 27.6844 63.5705 28.0613C63.67 28.4311 63.7198 28.808 63.7198 29.192C63.7198 29.576 63.67 29.9564 63.5705 30.3333C63.4709 30.7031 63.3145 31.0373 63.1012 31.336C62.8878 31.6346 62.6141 31.8764 62.2798 32.0613C61.9456 32.2391 61.5474 32.328 61.0852 32.328C60.623 32.328 60.2247 32.2391 59.8905 32.0613C59.5563 31.8764 59.2825 31.6346 59.0692 31.336C58.8559 31.0373 58.6994 30.7031 58.5999 30.3333C58.5003 29.9564 58.4505 29.576 58.4505 29.192ZM57.4372 29.192C57.4372 29.7111 57.5119 30.2124 57.6612 30.696C57.8176 31.1724 58.0487 31.5955 58.3545 31.9653C58.6603 32.3351 59.0407 32.6302 59.4958 32.8506C59.951 33.064 60.4807 33.1706 61.0852 33.1706C61.6896 33.1706 62.2194 33.064 62.6745 32.8506C63.1296 32.6302 63.5101 32.3351 63.8158 31.9653C64.1216 31.5955 64.3492 31.1724 64.4985 30.696C64.6549 30.2124 64.7332 29.7111 64.7332 29.192C64.7332 28.6729 64.6549 28.1751 64.4985 27.6987C64.3492 27.2151 64.1216 26.7884 63.8158 26.4187C63.5101 26.0489 63.1296 25.7538 62.6745 25.5333C62.2194 25.3129 61.6896 25.2027 61.0852 25.2027C60.4807 25.2027 59.951 25.3129 59.4958 25.5333C59.0407 25.7538 58.6603 26.0489 58.3545 26.4187C58.0487 26.7884 57.8176 27.2151 57.6612 27.6987C57.5119 28.1751 57.4372 28.6729 57.4372 29.192ZM65.9893 25.384V33H66.9493V26.664H66.9706L69.3493 33H70.2133L72.5919 26.664H72.6133V33H73.5733V25.384H72.1866L69.776 31.784L67.376 25.384H65.9893ZM76.2729 29.032V26.2373H78.2569C78.8329 26.2373 79.2525 26.3582 79.5156 26.6C79.7858 26.8347 79.9209 27.1796 79.9209 27.6347C79.9209 28.0898 79.7858 28.4382 79.5156 28.68C79.2525 28.9218 78.8329 29.0391 78.2569 29.032H76.2729ZM75.2596 25.384V33H76.2729V29.8853H78.5983C79.3662 29.8924 79.9458 29.6969 80.3369 29.2987C80.7351 28.9004 80.9342 28.3458 80.9342 27.6347C80.9342 26.9236 80.7351 26.3724 80.3369 25.9813C79.9458 25.5831 79.3662 25.384 78.5983 25.384H75.2596ZM82.1762 25.384V33H87.2215V32.1466H83.1896V25.384H82.1762ZM88.146 25.384V33H89.1593V25.384H88.146ZM92.1757 29.8533L93.4663 26.3013H93.4877L94.757 29.8533H92.1757ZM92.933 25.384L89.9677 33H91.0024L91.8557 30.7066H95.077L95.909 33H97.029L94.053 25.384H92.933ZM97.7697 25.384V33H98.7296V26.888H98.751L102.73 33H103.839V25.384H102.879V31.56H102.858L98.847 25.384H97.7697ZM107.206 26.2373V33H108.22V26.2373H110.758V25.384H104.668V26.2373H107.206Z" fill="#303030"/>
</svg>
