<svg width="31" height="25" viewBox="0 0 31 25" fill="none" xmlns="http://www.w3.org/2000/svg">
<path d="M18.0473 18.0381H12.0312V24.0541H18.0473V18.0381Z" fill="#4E342E"/>
<path d="M30.0763 0.741211H0V21.0445H30.0763V0.741211Z" fill="#8D6E63"/>
<path d="M28.5771 2.24707H1.50781V19.5406H28.5771V2.24707Z" fill="white"/>
<path d="M21.8071 23.3008H8.27344V24.8043H21.8071V23.3008Z" fill="#8D6E63"/>
<path d="M9.77344 17.285H20.3V17.276C20.3 14.7907 18.2838 12.7744 15.7985 12.7744H14.275C11.7878 12.7744 9.77344 14.7907 9.77344 17.276V17.285Z" fill="#43A047"/>
<path d="M12.4046 8.26074C11.781 8.26074 11.2773 8.76617 11.2773 9.38795C11.2773 10.0115 11.7828 10.5151 12.4046 10.5151C13.0263 10.5151 13.5318 10.0097 13.5318 9.38795C13.5318 8.76617 13.0263 8.26074 12.4046 8.26074ZM17.6679 8.26074C17.0443 8.26074 16.5407 8.76617 16.5407 9.38795C16.5407 10.0115 17.0461 10.5151 17.6679 10.5151C18.2896 10.5151 18.7951 10.0097 18.7951 9.38795C18.7951 8.76617 18.2915 8.26074 17.6679 8.26074ZM16.5407 11.2696H13.5336V13.5259C13.5336 13.5259 13.7808 14.2786 15.0062 14.2786C16.2316 14.2786 16.5407 13.5259 16.5407 13.5259V11.2696Z" fill="#EAA549"/>
<path d="M18.0454 6.92024C18.0454 5.26216 16.6964 5.25488 15.0383 5.25488C13.3803 5.25488 12.0312 5.26216 12.0312 6.92024C12.0312 7.18022 12.0312 9.50371 12.0312 9.76551C12.0312 11.4236 13.3803 12.7726 15.0383 12.7726C16.6964 12.7726 18.0454 11.4236 18.0454 9.76551C18.0454 9.50553 18.0454 7.18204 18.0454 6.92024Z" fill="#FFB74D"/>
<path d="M14.8717 3.74987C13.0391 3.91531 11.2773 5.20069 11.2773 7.94052V9.01318L12.03 9.76586V7.50964L16.7752 5.85519L18.046 7.50964V9.76586L18.7987 9.01318V8.10778C18.7987 6.29335 18.6969 4.94616 16.5425 4.50073L16.1771 3.74805H14.8717V3.74987Z" fill="#4E342E"/>
<path d="M21.804 15.7803H26.3146V18.7874H21.804V15.7803ZM3.75781 15.7803H8.26846V18.7874H3.75781V15.7803ZM15.788 15.7803H20.2986V18.7874H15.788V15.7803ZM9.772 15.7803H14.2826V18.7874H9.772V15.7803Z" fill="#FFC107"/>
<path d="M21.804 17H26.3146V20.0071H21.804V17ZM3.75781 17H8.26846V20.0071H3.75781V17ZM15.788 17H20.2986V20.0071H15.788V17ZM9.772 17H14.2826V20.0071H9.772V17Z" fill="#FFC107"/>
</svg>
