<svg width="30" height="29" viewBox="0 0 30 29" fill="none" xmlns="http://www.w3.org/2000/svg">
    <path fill-rule="evenodd" clip-rule="evenodd" d="M0 5.1408C0 2.30162 2.30271 0 5.14324 0H18.8564C21.6969 0 23.9997 2.30162 23.9997 5.14081V7.48365C23.9997 7.74176 23.7903 7.951 23.5321 7.951C23.2739 7.951 23.0645 7.74176 23.0645 7.48365V5.14081C23.0645 2.81783 21.1805 0.934692 18.8564 0.934692H5.14324C2.81917 0.934692 0.935135 2.81783 0.935135 5.1408V23.8592C0.935135 26.1822 2.81917 28.0653 5.14324 28.0653H18.8568C21.1811 28.0653 23.0652 26.1818 23.0649 23.8586L23.0645 21.5163C23.0645 21.2582 23.2738 21.049 23.532 21.0489C23.7902 21.0489 23.9996 21.2581 23.9997 21.5162L24 23.8584C24.0004 26.6979 21.6976 29 18.8568 29H5.14324C2.30271 29 0 26.6984 0 23.8592V5.1408Z" fill="#171717"/>
    <path fill-rule="evenodd" clip-rule="evenodd" d="M24.7192 10.1338C24.8995 9.96462 25.2034 9.95451 25.398 10.1112L29.8461 13.6937C29.9442 13.7727 30 13.8837 30 14C30 14.1163 29.9442 14.2273 29.8461 14.3063L25.398 17.8888C25.2034 18.0455 24.8995 18.0354 24.7192 17.8662C24.539 17.697 24.5506 17.4328 24.7452 17.2761L28.2945 14.4176H12.4803C12.215 14.4176 12 14.2306 12 14C12 13.7694 12.215 13.5824 12.4803 13.5824H28.2945L24.7452 10.7239C24.5506 10.5672 24.539 10.303 24.7192 10.1338Z" fill="#FFBA0A"/>
    <path d="M4.76901 23.5002C4.76901 23.2608 4.575 23.0668 4.33568 23.0668C4.09635 23.0668 3.90234 23.2608 3.90234 23.5002C3.90234 23.7395 4.09635 23.9335 4.33568 23.9335C4.575 23.9335 4.76901 23.7395 4.76901 23.5002Z" fill="#FFBA0A"/>
    <path d="M4.76901 25.4998C4.76901 25.2605 4.575 25.0665 4.33568 25.0665C4.09635 25.0665 3.90234 25.2605 3.90234 25.4998C3.90234 25.7391 4.09635 25.9331 4.33568 25.9331C4.575 25.9331 4.76901 25.7391 4.76901 25.4998Z" fill="#FFBA0A"/>
    <path d="M4.76901 21.5002C4.76901 21.2608 4.575 21.0668 4.33568 21.0668C4.09635 21.0668 3.90234 21.2608 3.90234 21.5002C3.90234 21.7395 4.09635 21.9335 4.33568 21.9335C4.575 21.9335 4.76901 21.7395 4.76901 21.5002Z" fill="#FFBA0A"/>
    <path d="M4.76901 19.5002C4.76901 19.2608 4.575 19.0668 4.33568 19.0668C4.09635 19.0668 3.90234 19.2608 3.90234 19.5002C3.90234 19.7395 4.09635 19.9335 4.33568 19.9335C4.575 19.9335 4.76901 19.7395 4.76901 19.5002Z" fill="#FFBA0A"/>
    <path d="M4.76901 17.5002C4.76901 17.2608 4.575 17.0668 4.33568 17.0668C4.09635 17.0668 3.90234 17.2608 3.90234 17.5002C3.90234 17.7395 4.09635 17.9335 4.33568 17.9335C4.575 17.9335 4.76901 17.7395 4.76901 17.5002Z" fill="#FFBA0A"/>
    <path d="M4.76901 15.5002C4.76901 15.2608 4.575 15.0668 4.33568 15.0668C4.09635 15.0668 3.90234 15.2608 3.90234 15.5002C3.90234 15.7395 4.09635 15.9335 4.33568 15.9335C4.575 15.9335 4.76901 15.7395 4.76901 15.5002Z" fill="#FFBA0A"/>
    <path d="M4.76901 13.5002C4.76901 13.2608 4.575 13.0668 4.33568 13.0668C4.09635 13.0668 3.90234 13.2608 3.90234 13.5002C3.90234 13.7395 4.09635 13.9335 4.33568 13.9335C4.575 13.9335 4.76901 13.7395 4.76901 13.5002Z" fill="#FFBA0A"/>
    <path d="M4.76901 11.5002C4.76901 11.2608 4.575 11.0668 4.33568 11.0668C4.09635 11.0668 3.90234 11.2608 3.90234 11.5002C3.90234 11.7395 4.09635 11.9335 4.33568 11.9335C4.575 11.9335 4.76901 11.7395 4.76901 11.5002Z" fill="#FFBA0A"/>
    <path d="M4.76901 9.50017C4.76901 9.26085 4.575 9.06684 4.33568 9.06684C4.09635 9.06684 3.90234 9.26085 3.90234 9.50017C3.90234 9.73949 4.09635 9.9335 4.33568 9.9335C4.575 9.9335 4.76901 9.73949 4.76901 9.50017Z" fill="#FFBA0A"/>
    <path d="M4.76901 7.50017C4.76901 7.26085 4.575 7.06684 4.33568 7.06684C4.09635 7.06684 3.90234 7.26085 3.90234 7.50017C3.90234 7.73949 4.09635 7.9335 4.33568 7.9335C4.575 7.9335 4.76901 7.73949 4.76901 7.50017Z" fill="#FFBA0A"/>
    <path d="M4.76901 5.50017C4.76901 5.26085 4.575 5.06684 4.33568 5.06684C4.09635 5.06684 3.90234 5.26085 3.90234 5.50017C3.90234 5.73949 4.09635 5.9335 4.33568 5.9335C4.575 5.9335 4.76901 5.73949 4.76901 5.50017Z" fill="#FFBA0A"/>
    <path d="M4.76901 3.50017C4.76901 3.26085 4.575 3.06684 4.33568 3.06684C4.09635 3.06684 3.90234 3.26085 3.90234 3.50017C3.90234 3.73949 4.09635 3.9335 4.33568 3.9335C4.575 3.9335 4.76901 3.73949 4.76901 3.50017Z" fill="#FFBA0A"/>
</svg>
