<svg width="29" height="29" viewBox="0 0 29 29" fill="none" xmlns="http://www.w3.org/2000/svg">
    <path fill-rule="evenodd" clip-rule="evenodd" d="M3.94721 27.18C3.00118 27.6215 2.02 26.6403 2.46149 25.6943L4.53642 21.248C4.59152 21.1299 4.66683 21.0224 4.75896 20.9303L24.0554 1.63383C24.4919 1.19728 25.1997 1.19728 25.6363 1.63383L28.0076 4.00519C28.4442 4.44174 28.4442 5.14954 28.0076 5.58609L8.71122 24.8825C8.61909 24.9746 8.51156 25.05 8.3935 25.1051L3.94721 27.18ZM5.54941 21.7207L3.47448 26.167L7.92077 24.0921L27.2172 4.79564L24.8458 2.42428L5.54941 21.7207Z" fill="#171717"/>
    <path fill-rule="evenodd" clip-rule="evenodd" d="M20.1013 6.37768L23.2631 9.53948L22.4727 10.3299L19.3109 7.16813L20.1013 6.37768Z" fill="#171717"/>
    <path fill-rule="evenodd" clip-rule="evenodd" d="M22.4724 4.00619L25.6342 7.168L24.8438 7.95845L21.6819 4.79665L22.4724 4.00619Z" fill="#171717"/>
    <path d="M8.11269 20.9647C7.95678 20.8088 7.70874 20.804 7.55867 20.9541C7.40861 21.1042 7.41335 21.3522 7.56926 21.5081C7.72517 21.664 7.97321 21.6688 8.12328 21.5187C8.27335 21.3686 8.26861 21.1206 8.11269 20.9647Z" fill="#FFBA0A"/>
    <path d="M9.69082 19.3821C9.53491 19.2262 9.28686 19.2214 9.1368 19.3715C8.98673 19.5216 8.99147 19.7696 9.14738 19.9255C9.3033 20.0814 9.55134 20.0862 9.70141 19.9361C9.85147 19.786 9.84673 19.538 9.69082 19.3821Z" fill="#FFBA0A"/>
    <path d="M11.2768 17.8043C11.1208 17.6484 10.8728 17.6437 10.7227 17.7937C10.5727 17.9438 10.5774 18.1918 10.7333 18.3477C10.8892 18.5037 11.1373 18.5084 11.2873 18.3583C11.4374 18.2083 11.4327 17.9602 11.2768 17.8043Z" fill="#FFBA0A"/>
    <path d="M12.851 16.2217C12.6951 16.0658 12.447 16.0611 12.297 16.2111C12.1469 16.3612 12.1516 16.6093 12.3075 16.7652C12.4635 16.9211 12.7115 16.9258 12.8616 16.7758C13.0116 16.6257 13.0069 16.3776 12.851 16.2217Z" fill="#FFBA0A"/>
    <path d="M14.4369 14.6392C14.281 14.4833 14.033 14.4785 13.8829 14.6286C13.7328 14.7787 13.7376 15.0267 13.8935 15.1826C14.0494 15.3385 14.2974 15.3433 14.4475 15.1932C14.5976 15.0431 14.5928 14.7951 14.4369 14.6392Z" fill="#FFBA0A"/>
    <path d="M16.015 13.0614C15.8591 12.9055 15.6111 12.9007 15.461 13.0508C15.311 13.2009 15.3157 13.4489 15.4716 13.6048C15.6275 13.7607 15.8756 13.7655 16.0256 13.6154C16.1757 13.4654 16.1709 13.2173 16.015 13.0614Z" fill="#FFBA0A"/>
    <path d="M17.5971 11.4788C17.4412 11.3229 17.1931 11.3182 17.043 11.4682C16.893 11.6183 16.8977 11.8663 17.0536 12.0222C17.2095 12.1782 17.4576 12.1829 17.6077 12.0328C17.7577 11.8828 17.753 11.6347 17.5971 11.4788Z" fill="#FFBA0A"/>
    <path d="M19.1752 9.90101C19.0193 9.74509 18.7712 9.74035 18.6212 9.89042C18.4711 10.0405 18.4758 10.2885 18.6318 10.4444C18.7877 10.6004 19.0357 10.6051 19.1858 10.455C19.3358 10.305 19.3311 10.0569 19.1752 9.90101Z" fill="#FFBA0A"/>
    <path fill-rule="evenodd" clip-rule="evenodd" d="M5.48021 21.0033L8.64201 24.1651L7.85156 24.9556L4.68976 21.7937L5.48021 21.0033Z" fill="#171717"/>
</svg>
